<svg xmlns="http://www.w3.org/2000/svg" version="1.1" xmlns:xlink="http://www.w3.org/1999/xlink" xmlns:svgjs="http://svgjs.dev/svgjs" width="1500" height="314" viewBox="0 0 1500 314"><g transform="matrix(1,0,0,1,-0.9090909090909918,-0.7588350251304803)"><svg viewBox="0 0 396 83" data-background-color="#536f2e" preserveAspectRatio="xMidYMid meet" height="314" width="1500" xmlns="http://www.w3.org/2000/svg" xmlns:xlink="http://www.w3.org/1999/xlink"><g id="tight-bounds" transform="matrix(1,0,0,1,0.2400000000000091,0.20058378052812031)"><svg viewBox="0 0 395.52 82.59883243894375" height="82.59883243894375" width="395.52"><g><svg viewBox="0 0 540.1167215958178 112.79583986793232" height="82.59883243894375" width="395.52"><g transform="matrix(1,0,0,1,144.59672159581785,15.58900536524969)"><svg viewBox="0 0 395.52 81.61782913743293" height="81.61782913743293" width="395.52"><g id="textblocktransform"><svg viewBox="0 0 395.52 81.61782913743293" height="81.61782913743293" width="395.52" id="textblock"><g><svg viewBox="0 0 395.52 81.61782913743293" height="81.61782913743293" width="395.52"><g transform="matrix(1,0,0,1,0,0)"><svg width="395.52" viewBox="1.05 -37.5 246.48 50" height="81.61782913743293" data-palette-color="#a3dd30"><g class="wordmark-text-0" data-fill-palette-color="primary" id="text-0"><path d="M23.1 0L17.75 0 13.3-25.7 9.25 0 6.25 0 11.75-35Q8.6-34.3 6.9-31.98 5.2-29.65 5.2-25.45L5.2-25.45Q5.2-23.75 5.43-22.68 5.65-21.6 5.95-20.95 6.25-20.3 6.58-20.03 6.9-19.75 7.05-19.65L7.05-19.65Q4.35-19.65 2.7-21.03 1.05-22.4 1.05-25.35L1.05-25.35Q1.05-27.8 2.25-30.03 3.45-32.25 5.3-33.9 7.15-35.55 9.38-36.52 11.6-37.5 13.7-37.5L13.7-37.5Q14.5-37.5 15.28-37.35 16.05-37.2 16.75-36.8L16.75-36.8 21.75-7.75 27.6-36.8 33.3-36.8 36.1 0 30.4 0 28.4-26.2 23.1 0ZM53.35-25L58.35-25 58.35-8Q58.35-7.5 58.4-6.75 58.45-6 58.67-5.28 58.9-4.55 59.35-4.03 59.8-3.5 60.6-3.5L60.6-3.5Q63.05-3.5 64.2-8.95L64.2-8.95 66.05-8.95Q65.5-5.8 64.65-3.98 63.8-2.15 62.85-1.2 61.9-0.25 60.9 0.03 59.9 0.3 59.1 0.3L59.1 0.3Q57.95 0.3 57.12-0.1 56.3-0.5 55.72-1.15 55.15-1.8 54.8-2.65 54.45-3.5 54.25-4.45L54.25-4.45Q53.5-2.5 51.82-1.1 50.15 0.3 47.75 0.3L47.75 0.3Q46.25 0.3 44.72-0.3 43.2-0.9 41.97-2.27 40.75-3.65 39.97-5.83 39.2-8 39.2-11.15L39.2-11.15Q39.2-13.45 39.72-15.95 40.25-18.45 41.4-20.5 42.55-22.55 44.35-23.9 46.15-25.25 48.7-25.25L48.7-25.25Q49.3-25.25 49.97-25.13 50.65-25 51.27-24.7 51.9-24.4 52.45-23.88 53-23.35 53.35-22.6L53.35-22.6 53.35-25ZM49-3.5L49-3.5Q49.75-3.5 50.52-3.93 51.3-4.35 51.92-5.08 52.55-5.8 52.95-6.8 53.35-7.8 53.35-8.95L53.35-8.95 53.35-20.35Q53-21.15 52.27-21.83 51.55-22.5 50.4-22.5L50.4-22.5Q48.8-22.5 47.65-21.43 46.5-20.35 45.8-18.73 45.1-17.1 44.77-15.18 44.45-13.25 44.45-11.5L44.45-11.5Q44.45-7.2 45.62-5.35 46.8-3.5 49-3.5ZM81.3-8.95L83.4-8.95Q81.95-6.95 80.42-5.63 78.9-4.3 77.45-3.3L77.45-3.3Q76.9-2.3 76.05-1.63 75.2-0.95 74.22-0.53 73.25-0.1 72.27 0.1 71.3 0.3 70.5 0.3L70.5 0.3Q68.3 0.3 66.87-0.4 65.45-1.1 64.59-2.18 63.75-3.25 63.4-4.58 63.05-5.9 63.05-7.1L63.05-7.1Q63.05-8.4 63.57-9.38 64.09-10.35 64.84-10.75L64.84-10.75Q66.15-14.5 67.4-18.18 68.65-21.85 69.05-25.55L69.05-25.55 74.09-26.55Q75.3-21.8 76.07-18.8 76.84-15.8 77.32-13.73 77.8-11.65 78.02-10.08 78.25-8.5 78.25-6.6L78.25-6.6Q79.09-7.15 79.84-7.78 80.59-8.4 81.3-8.95L81.3-8.95ZM72.95-6.95L72.95-6.95Q72.95-8.5 72.77-9.7 72.59-10.9 72.25-12.35 71.9-13.8 71.37-15.88 70.84-17.95 70.15-21.2L70.15-21.2Q69.84-18.4 68.92-15.85 68-13.3 67.25-10.6L67.25-10.6Q67.7-10.3 68.02-9.78 68.34-9.25 68.34-8.4L68.34-8.4Q68.34-7.45 67.84-6.95 67.34-6.45 66.75-6.45L66.75-6.45Q65.95-6.45 65.4-7.15L65.4-7.15Q65.8-5.4 66.8-4.42 67.8-3.45 69.45-3.45L69.45-3.45Q71.05-3.45 72-4.28 72.95-5.1 72.95-6.95ZM81.29-31.9L86.29-32.6 86.29-25 90.14-25 90.14-23.25 86.29-23.25 86.29-8Q86.29-7.4 86.34-6.63 86.39-5.85 86.62-5.15 86.84-4.45 87.32-3.98 87.79-3.5 88.64-3.5L88.64-3.5Q89.99-3.5 91.22-4.85 92.44-6.2 93.14-8.95L93.14-8.95 94.99-8.95Q94.14-5.8 93.17-3.98 92.19-2.15 91.14-1.2 90.09-0.25 89.07 0.03 88.04 0.3 87.19 0.3L87.19 0.3Q85.39 0.3 84.24-0.38 83.09-1.05 82.44-2.1 81.79-3.15 81.54-4.42 81.29-5.7 81.29-6.95L81.29-6.95 81.29-23.25 79.59-23.25 79.59-25 81.29-25 81.29-31.9ZM108.69-18.75L108.69-18.75Q108.69-15.25 105.82-12.9 102.94-10.55 97.84-10L97.84-10Q98.04-8 98.57-6.75 99.09-5.5 99.84-4.78 100.59-4.05 101.57-3.78 102.54-3.5 103.59-3.5L103.59-3.5Q105.99-3.5 108.09-4.75 110.19-6 111.49-8.95L111.49-8.95 113.09-8.95Q112.44-7.1 111.29-5.43 110.14-3.75 108.59-2.48 107.04-1.2 105.24-0.45 103.44 0.3 101.54 0.3L101.54 0.3Q99.79 0.3 98.17-0.3 96.54-0.9 95.29-2.27 94.04-3.65 93.27-5.85 92.49-8.05 92.49-11.25L92.49-11.25Q92.49-13.35 92.97-15.8 93.44-18.25 94.57-20.35 95.69-22.45 97.52-23.85 99.34-25.25 102.04-25.25L102.04-25.25Q103.29-25.25 104.47-24.98 105.64-24.7 106.59-23.98 107.54-23.25 108.12-22 108.69-20.75 108.69-18.75ZM97.79-11.95L97.79-11.95Q101.34-12.5 103.42-14.45 105.49-16.4 105.49-19.25L105.49-19.25Q105.49-21.15 104.84-21.98 104.19-22.8 102.99-22.8L102.99-22.8Q101.69-22.8 100.72-21.8 99.74-20.8 99.09-19.23 98.44-17.65 98.12-15.73 97.79-13.8 97.79-11.95ZM111.44-25L116.44-25 116.44-20.8Q117.04-21.7 117.61-22.5 118.19-23.3 118.89-23.9 119.59-24.5 120.44-24.88 121.29-25.25 122.34-25.25L122.34-25.25Q124.04-25.25 124.84-24.38 125.64-23.5 125.64-22.25L125.64-22.25Q125.64-21.5 125.39-21 125.14-20.5 124.79-20.2 124.44-19.9 124.04-19.78 123.64-19.65 123.34-19.65L123.34-19.65Q122.89-19.65 122.61-19.85 122.34-20.05 122.06-20.28 121.79-20.5 121.44-20.7 121.09-20.9 120.54-20.9L120.54-20.9Q119.39-20.9 118.34-20.1 117.29-19.3 116.44-18.4L116.44-18.4 116.44 0 111.44 0 111.44-25ZM140.14-25L145.14-25 145.14-1.05Q146.39-1.45 147.36-1.95 148.34-2.45 149.06-3.3 149.79-4.15 150.26-5.5 150.74-6.85 150.99-8.95L150.99-8.95 152.84-8.95Q152.44-6.3 151.81-4.63 151.19-2.95 150.26-1.93 149.34-0.9 148.06-0.33 146.79 0.25 145.14 0.75L145.14 0.75 145.14 3.95Q145.14 6.3 144.64 7.93 144.14 9.55 143.26 10.58 142.39 11.6 141.26 12.05 140.14 12.5 138.89 12.5L138.89 12.5Q136.39 12.5 134.99 11.08 133.59 9.65 133.59 7.6L133.59 7.6Q133.59 6.3 134.16 5.25 134.74 4.2 135.66 3.33 136.59 2.45 137.76 1.78 138.94 1.1 140.14 0.6L140.14 0.6 140.14-2.55Q139.14-1.1 137.86-0.4 136.59 0.3 135.29 0.3L135.29 0.3Q133.84 0.3 132.54-0.1 131.24-0.5 130.29-1.43 129.34-2.35 128.79-3.83 128.24-5.3 128.24-7.45L128.24-7.45 128.24-25 133.24-25 133.24-8Q133.24-5.55 134.09-4.53 134.94-3.5 136.24-3.5L136.24-3.5Q136.94-3.5 137.64-3.85 138.34-4.2 138.89-4.88 139.44-5.55 139.79-6.5 140.14-7.45 140.14-8.7L140.14-8.7 140.14-25ZM137.94 9.9L137.94 9.9Q139.29 9.9 139.71 8.88 140.14 7.85 140.14 6.1L140.14 6.1 140.14 2.6Q137.64 3.75 136.59 4.88 135.54 6 135.54 7.4L135.54 7.4Q135.54 8.55 136.16 9.22 136.79 9.9 137.94 9.9Z" fill="#a3dd30" data-fill-palette-color="primary"></path><path d="M181.44-36.9L181.39-36.75 181.39-1Q182.99-0.65 184.51 0.1 186.04 0.85 187.64 1.6 189.24 2.35 191.01 2.9 192.79 3.45 194.89 3.45L194.89 3.45Q196.64 3.45 198.74 2.45L198.74 2.45Q198.89 3.15 198.89 3.8L198.89 3.8Q198.89 4.85 198.51 5.78 198.14 6.7 197.41 7.4 196.69 8.1 195.66 8.53 194.64 8.95 193.39 8.95L193.39 8.95Q191.44 8.95 189.54 7.73 187.64 6.5 185.69 5.03 183.74 3.55 181.61 2.33 179.49 1.1 177.09 1.1L177.09 1.1Q176.79 1.1 176.51 1.1 176.24 1.1 175.94 1.15L175.94 1.15 175.94-34.05Q172.59-33.1 170.64-30.8 168.69-28.5 168.69-25.05L168.69-25.05Q168.69-23.7 168.89-22.78 169.09-21.85 169.39-21.18 169.69-20.5 170.11-20.03 170.54-19.55 170.99-19.15L170.99-19.15Q167.99-19.15 166.24-20.53 164.49-21.9 164.49-25.2L164.49-25.2Q164.49-27.6 165.74-29.73 166.99-31.85 169.06-33.48 171.14-35.1 173.81-36.05 176.49-37 179.34-37L179.34-37Q179.89-37 180.41-36.98 180.94-36.95 181.44-36.9L181.44-36.9ZM188.59-25L193.59-25 193.59-8Q193.59-7.5 193.64-6.75 193.69-6 193.91-5.28 194.14-4.55 194.59-4.03 195.04-3.5 195.84-3.5L195.84-3.5Q198.29-3.5 199.44-8.95L199.44-8.95 201.29-8.95Q200.74-5.8 199.89-3.98 199.04-2.15 198.09-1.2 197.14-0.25 196.14 0.03 195.14 0.3 194.34 0.3L194.34 0.3Q192.59 0.3 191.49-0.38 190.39-1.05 189.74-2.1 189.09-3.15 188.84-4.45 188.59-5.75 188.59-6.95L188.59-6.95 188.59-25ZM187.69-32.2L187.69-32.2Q187.69-33.55 188.64-34.55 189.59-35.55 190.99-35.55L190.99-35.55Q192.34-35.55 193.34-34.55 194.34-33.55 194.34-32.2L194.34-32.2Q194.34-30.8 193.34-29.85 192.34-28.9 190.99-28.9L190.99-28.9Q189.59-28.9 188.64-29.85 187.69-30.8 187.69-32.2ZM199.38-25L204.38-25 204.38-21.2Q205.13-22.55 205.91-23.38 206.68-24.2 207.48-24.6 208.28-25 209.01-25.13 209.73-25.25 210.38-25.25L210.38-25.25Q212.63-25.25 214.01-24.4 215.38-23.55 216.08-22.23 216.78-20.9 217.01-19.33 217.23-17.75 217.23-16.3L217.23-16.3Q217.23-15.4 217.18-14.33 217.13-13.25 217.08-12.13 217.03-11 216.98-9.88 216.93-8.75 216.93-7.8L216.93-7.8Q216.93-7.4 216.98-6.68 217.03-5.95 217.23-5.25 217.43-4.55 217.88-4.03 218.33-3.5 219.18-3.5L219.18-3.5Q220.33-3.5 221.26-4.8 222.18-6.1 222.78-8.95L222.78-8.95 224.63-8.95Q224.08-5.8 223.23-3.98 222.38-2.15 221.43-1.2 220.48-0.25 219.53 0.03 218.58 0.3 217.78 0.3L217.78 0.3Q216.18 0.3 215.08-0.33 213.98-0.95 213.28-2 212.58-3.05 212.26-4.45 211.93-5.85 211.93-7.35L211.93-7.35Q211.93-7.8 211.96-9.03 211.98-10.25 212.01-11.65 212.03-13.05 212.06-14.3 212.08-15.55 212.08-16.05L212.08-16.05Q212.08-17.65 211.83-18.7 211.58-19.75 211.13-20.35 210.68-20.95 210.11-21.2 209.53-21.45 208.88-21.45L208.88-21.45Q207.33-21.45 206.21-20.2 205.08-18.95 204.38-16L204.38-16 204.38 0 199.38 0 199.38-25ZM222.73-34.3L227.73-35 227.73-16.85 236.33-25 241.18-25 232.83-18.25 233.33-18.25Q235.58-18.25 236.9-17.5 238.23-16.75 238.96-15.58 239.68-14.4 239.9-13.03 240.13-11.65 240.13-10.45L240.13-10.45Q240.13-9.95 240.11-9.33 240.08-8.7 240.06-8.08 240.03-7.45 240.01-6.93 239.98-6.4 239.98-6.1L239.98-6.1Q239.98-5.75 240.03-5.3 240.08-4.85 240.28-4.45 240.48-4.05 240.88-3.78 241.28-3.5 241.93-3.5L241.93-3.5Q243.23-3.5 244.15-4.8 245.08-6.1 245.68-8.95L245.68-8.95 247.53-8.95Q246.93-5.7 246.08-3.88 245.23-2.05 244.26-1.1 243.28-0.15 242.31 0.08 241.33 0.3 240.58 0.3L240.58 0.3Q239.08 0.3 238.01-0.15 236.93-0.6 236.26-1.38 235.58-2.15 235.26-3.2 234.93-4.25 234.93-5.4L234.93-5.4Q234.93-5.6 234.93-6.28 234.93-6.95 234.96-7.7 234.98-8.45 234.98-9.13 234.98-9.8 234.98-10.05L234.98-10.05Q234.98-12.65 234.03-13.55 233.08-14.45 231.83-14.45L231.83-14.45Q230.53-14.45 229.51-13.6 228.48-12.75 227.73-10.6L227.73-10.6 227.73 0 222.73 0 222.73-34.3Z" fill="#cbf871" data-fill-palette-color="secondary"></path></g></svg></g></svg></g></svg></g></svg></g><g><svg viewBox="0 0 125.32871096436924 112.79583986793232" height="112.79583986793232" width="125.32871096436924"><g><svg xmlns="http://www.w3.org/2000/svg" xmlns:xlink="http://www.w3.org/1999/xlink" version="1.1" x="0" y="0" viewBox="16 40 480 432" enable-background="new 0 0 512 512" xml:space="preserve" height="112.79583986793232" width="125.32871096436924" class="icon-icon-0" data-fill-palette-color="accent" id="icon-0"><path d="M311.845 230.431l-7.299-36.493L326.4 164.8c1.648-2.198 2.054-5.088 1.072-7.655-0.98-2.567-3.209-4.451-5.903-4.99l-37.003-7.4L262.4 115.2c-1.511-2.015-3.882-3.2-6.4-3.2s-4.89 1.186-6.4 3.2l-22.166 29.555-37.003 7.4c-2.694 0.539-4.923 2.423-5.903 4.99-0.981 2.566-0.576 5.457 1.072 7.655l21.854 29.139-7.299 36.493c-0.56 2.796 0.412 5.679 2.551 7.566 2.138 1.888 5.12 2.493 7.824 1.592L256 224.433l45.47 15.157c0.828 0.276 1.682 0.411 2.529 0.411 1.922 0 3.812-0.693 5.295-2.002C311.433 236.11 312.404 233.228 311.845 230.431zM289.6 187.2c-1.365 1.821-1.891 4.137-1.444 6.369l5.297 26.482-34.922-11.641c-0.821-0.274-1.676-0.411-2.53-0.411s-1.709 0.137-2.53 0.411l-34.922 11.641 5.297-26.482c0.446-2.232-0.079-4.548-1.444-6.369l-16.384-21.845 27.553-5.51c1.93-0.386 3.649-1.47 4.831-3.045l17.6-23.466 17.6 23.466c1.182 1.575 2.901 2.659 4.831 3.045l27.553 5.51L289.6 187.2zM496 144c0-13.233-10.767-24-24-24h-90.28c1.427-14.67 1.962-26.44 2.161-33.336C393.254 83.395 400 74.473 400 64c0-13.233-10.767-24-24-24H136c-13.233 0-24 10.767-24 24 0 10.473 6.746 19.395 16.119 22.664 0.199 6.896 0.734 18.666 2.161 33.336H40c-13.233 0-24 10.767-24 24 0 11.05 7.507 20.379 17.688 23.158C32.599 169.896 32 172.879 32 176c0 11.05 7.507 20.379 17.688 23.158C48.599 201.896 48 204.879 48 208c0 11.826 8.598 21.681 19.87 23.645l23.451 29.314C117.271 293.396 155.979 312 197.52 312H208v24c0 4.418 3.582 8 8 8h8v8c0 13.234-10.767 24-24 24-19.317 0-35.479 13.764-39.195 32H136c-4.418 0-8 3.582-8 8v48c0 4.418 3.582 8 8 8h240c4.418 0 8-3.582 8-8v-48c0-4.418-3.582-8-8-8h-24.805c-3.717-18.236-19.878-32-39.195-32-13.233 0-24-10.766-24-24v-8h8c4.418 0 8-3.582 8-8v-24h10.48c41.54 0 80.248-18.604 106.198-51.042l23.451-29.314C455.402 229.681 464 219.826 464 208c0-3.121-0.599-6.104-1.688-8.842C472.493 196.379 480 187.05 480 176c0-3.121-0.599-6.104-1.688-8.842C488.493 164.379 496 155.05 496 144zM256 296c-98.319 0-110.341-168.899-111.8-208h223.603C366.36 127.098 354.402 296 256 296zM136 56h240c4.411 0 8 3.589 8 8s-3.589 8-8 8H136c-4.411 0-8-3.589-8-8S131.589 56 136 56zM103.815 250.963L88.645 232H120c4.418 0 8-3.582 8-8s-3.582-8-8-8H72c-4.411 0-8-3.589-8-8s3.589-8 8-8h32c4.418 0 8-3.582 8-8s-3.582-8-8-8H56c-4.411 0-8-3.589-8-8s3.589-8 8-8h32c4.418 0 8-3.582 8-8s-3.582-8-8-8H40c-4.411 0-8-3.589-8-8s3.589-8 8-8h92.08c2.255 17.608 5.756 37.774 11.193 58.07 13.144 49.07 33.699 83.421 60.577 101.93h-6.33C160.866 296 126.713 279.585 103.815 250.963zM368 456H144v-32h224V456zM312 392c10.429 0 19.321 6.689 22.624 16H177.376c3.302-9.311 12.195-16 22.624-16 22.056 0 40-17.944 40-40v-8h32v8C272 374.056 289.944 392 312 392zM224 328v-21.53c9.999 3.668 20.677 5.53 32 5.53s22.001-1.862 32-5.53V328H224zM472 152h-48c-4.418 0-8 3.582-8 8s3.582 8 8 8h32c4.411 0 8 3.589 8 8s-3.589 8-8 8h-48c-4.418 0-8 3.582-8 8s3.582 8 8 8h32c4.411 0 8 3.589 8 8s-3.589 8-8 8h-48c-4.418 0-8 3.582-8 8s3.582 8 8 8h31.355l-15.17 18.963C385.287 279.585 351.134 296 314.48 296h-6.33c26.878-18.509 47.433-52.86 60.577-101.93 5.436-20.296 8.938-40.462 11.193-58.07H472c4.411 0 8 3.589 8 8S476.411 152 472 152z" fill="#27ca06" data-fill-palette-color="accent"></path></svg></g></svg></g></svg></g><defs></defs></svg><rect width="395.52" height="82.59883243894375" fill="none" stroke="none" visibility="hidden"></rect></g></svg></g></svg>